<svg xmlns="http://www.w3.org/2000/svg" viewBox="0 0 64 64" fill="#5f5f5f"><path d="M55.2 7.5h-1.9V3.7c0-2.1-1.6-3.7-3.7-3.7H9.1C6.9 0 5.3 1.6 5.3 3.7v38.1c0 .8.3 1.3.8 1.9l19.7 19.5c.5.5 1.1.8 1.9.8h21.9c2.1 0 3.7-1.6 3.7-3.7v-3.7l5.1-10.1c.3-.3.3-.8.3-1.1V10.7c0-1.6-1.4-3.2-3.5-3.2zM53.3 16H48v-3.5h5.3V16zM24 53.9l-8.5-8.5H24v8.5zm5.3 4.8V43.2c0-1.9-1.6-3.2-3.2-3.2H10.7V5.3H48v2.1h-1.9c-1.9 0-3.5 1.3-3.5 3.2V45c0 .5 0 .8.3 1.3L48 56.5v2.1H29.3zm21.4-8.8L48 44.5V21.3h5.3v23.2l-2.6 5.4z"/></svg>