<svg xmlns="http://www.w3.org/2000/svg" viewBox="0 0 64 64" fill="#5f5f5f"><path d="M56.5 19.5L36 1.6c-2.4-2.1-5.9-2.1-8 0L7.5 19.5c-1.3 1.3-2.1 2.9-2.1 4.8v33.6c0 3.5 2.7 6.1 6.1 6.1h9.1c3.5 0 6.1-2.7 6.1-6.1V46.1c0-.5.3-.8.8-.8h9.1c.5 0 .8.3.8.8v11.7c0 3.5 2.7 6.1 6.1 6.1h9.1c3.5 0 6.1-2.7 6.1-6.1V24.3c0-1.9-.8-3.5-2.2-4.8zm-3.2 38.4c0 .5-.3.8-.8.8h-9.1c-.5 0-.8-.3-.8-.8V46.1c0-3.5-2.7-6.1-6.1-6.1h-9.1c-3.5 0-6.1 2.7-6.1 6.1v11.7c0 .5-.3.8-.8.8h-9.1c-.5 0-.8-.3-.8-.8V24.3c0-.3 0-.5.3-.5L31.5 5.9c.3-.3.8-.3 1.1 0L53 23.8c.3 0 .3.3.3.5v33.6z"/></svg>