<svg xmlns="http://www.w3.org/2000/svg" viewBox="0 0 64 64" fill="#5f5f5f"><path d="M22.7 42.7c3.7 0 6.7-2.9 6.7-6.7s-2.9-6.7-6.7-6.7-6.7 3-6.7 6.7 2.9 6.7 6.7 6.7zm0-8c.8 0 1.3.5 1.3 1.3s-.5 1.3-1.3 1.3-1.3-.5-1.3-1.3.5-1.3 1.3-1.3z"/><path d="M60.8 0H29.9c-1.9 0-3.2 1.3-3.2 3.2v18.1H3.2c-1.9 0-3.2 1.3-3.2 3.2v36.3C0 62.7 1.3 64 3.2 64h30.9c1.9 0 3.2-1.3 3.2-3.2V42.7h23.5c1.9 0 3.2-1.3 3.2-3.2V3.2C64 1.3 62.7 0 60.8 0zM32 5.3h26.7v17.6c-.5.3-1.3.8-1.9 1.1-1.1.8-1.9 1.6-2.9 2.4-2.7 2.4-4.3 3.5-6.1 2.7-.3 0-.8-.5-1.1-.8l-.3-.3c-1.6-1.3-3.5-2.9-5.9-3.5-1.1-.3-2.1-.5-3.2-.3-.3-1.6-1.6-2.9-3.2-2.9H32v-16zm0 21.4v17.6c-.5.3-1.3.8-1.9 1.1-1.1.8-1.9 1.6-2.9 2.4-2.7 2.4-4.3 3.5-6.1 2.7-.3 0-.8-.5-1.3-1.1l-.3-.3c-1.6-1.3-3.5-2.7-5.9-3.5-2.9-.8-5.9.3-8.3 1.9V26.7H32zm-26.7 32v-5.1c.3-.3.5-.3.8-.5 2.7-1.6 4.5-2.7 6.4-2.1 1.3.3 2.7 1.3 4 2.4l.3.3c.8.5 1.6 1.3 2.9 1.9 1.1.3 2.1.5 2.9.5 3.5 0 6.4-2.4 8.5-4.3.3-.3.8-.5 1.1-1.1v8H5.3zm37.9-26.4c.8.5 1.6 1.3 2.9 1.9 1.1.5 2.1.5 3.2.5 3.5 0 6.4-2.4 8.3-4.3.3-.3.8-.5 1.1-1.1v8H37.3v-7.7h1.6c1.4.3 2.7 1.3 4.3 2.7z"/><path d="M49.3 21.3c3.7 0 6.7-2.9 6.7-6.7S53.1 8 49.3 8c-3.7 0-6.7 2.9-6.7 6.7s3 6.6 6.7 6.6zm0-8c.8 0 1.3.5 1.3 1.3s-.5 1.3-1.3 1.3-1.3-.5-1.3-1.3c0-.7.5-1.3 1.3-1.3z"/></svg>